<?xml version="1.0" encoding="UTF-8" standalone="no"?>
<svg width="500px" height="667px" viewBox="0 0 500 667" version="1.1" xmlns="http://www.w3.org/2000/svg" xmlns:xlink="http://www.w3.org/1999/xlink">
    <!-- Generator: Sketch 40.3 (33839) - http://www.bohemiancoding.com/sketch -->
    <title>sb</title>
    <desc>Created with Sketch.</desc>
    <defs></defs>
    <g id="Page-1" stroke="none" stroke-width="1" fill="none" fill-rule="evenodd">
        <g id="sb">
            <rect id="Rectangle-3-Copy-3" fill="#231E1E" x="0" y="0" width="500" height="667"></rect>
            <path d="M160.65,170.75 C158.5,167 153.2,163.35 146.4,163.35 C143.2,163.35 139.85,164 137.25,165.65 C134.6,167.3 132.8,170.1 132.8,173.5 C132.8,180.5 139.2,182.5 142.1,183 L149.75,184.45 C153.4,185.2 155.35,186.4 155.35,188.8 C155.35,192.45 152.05,194.3 147.45,194.3 C142.05,194.3 138.3,191.65 136.15,186.35 L131.2,189.6 C132.15,192.4 133.95,194.6 136.35,196.35 C139.35,198.5 143.1,199.65 147.1,199.65 C151.7,199.65 155.3,198.7 157.85,196.55 C159.9,194.8 161.5,191.9 161.5,188.7 C161.5,181.65 156.45,179.8 151.1,178.75 L144.25,177.45 C141.25,176.9 138.95,175.65 138.95,173.3 C138.95,170.35 142.7,168.9 146.5,168.9 C150.35,168.9 154.15,171.45 155.9,174.4 L160.65,170.75 Z M192.25,199 L200.15,199 L183.5,178.85 L198.15,164 L190.2,164 L174.5,179.75 L174.5,164 L168.4,164 L168.4,199 L174.5,199 L174.5,187.7 L179.15,183 L192.25,199 Z M204.75,199 L229.45,199 L229.45,193.5 L210.85,193.5 L210.85,183.4 L225.9,183.4 L225.9,178.1 L210.85,178.1 L210.85,169.5 L229.15,169.5 L229.15,164 L204.75,164 L204.75,199 Z M232.2,169.5 L243.1,169.5 L243.1,199 L249.2,199 L249.2,169.5 L260.1,169.5 L260.1,164 L232.2,164 L232.2,169.5 Z M292.2,186.5 C291,190.7 286.7,193.8 281.55,193.8 C274.35,193.8 269.45,188.15 269.45,181.5 C269.45,174.8 274.4,169.05 281.6,169.05 C286.95,169.05 291.1,172.3 292.2,176.5 L298.6,176.5 C297.15,169.05 290.15,163.35 281.5,163.35 C270.95,163.35 263.35,171.45 263.35,181.5 C263.35,191.5 270.95,199.65 281.5,199.65 C290.15,199.65 297.15,194.05 298.6,186.5 L292.2,186.5 Z M305.35,199 L311.45,199 L311.45,183.4 L327.3,183.4 L327.3,199 L333.35,199 L333.4,164 L327.3,164 L327.3,178.1 L311.45,178.1 L311.45,164 L305.35,164 L305.35,199 Z M155.7,242.1 C157.45,241.85 161.3,240.05 161.3,234.5 C161.3,231.05 160.15,228.6 158.15,227.15 C156,225.6 152.95,225 149.15,225 L133.55,225 L133.55,260 L150.05,260 C154.25,260 157.25,258.8 159.2,257 C161.15,255.2 162.05,252.85 162.05,250.3 C162.05,245.4 158.65,243.05 155.7,242.1 L155.7,242.1 Z M139.65,244.7 L149.05,244.7 C153.5,244.7 155.65,246.65 155.65,249.65 C155.65,253.1 153.45,254.85 149.05,254.85 L139.65,254.85 L139.65,244.7 Z M155.2,234.6 C155.2,238 153.05,239.4 148.65,239.4 L139.65,239.4 L139.65,230 L148.65,230 C153.05,230 155.2,231.2 155.2,234.6 L155.2,234.6 Z M165.35,303.5 C165.35,296.8 170.3,291.05 177.5,291.05 C184.55,291.05 189.45,296.8 189.45,303.5 C189.45,310.15 184.55,315.8 177.45,315.8 C170.25,315.8 165.35,310.15 165.35,303.5 L165.35,303.5 Z M159.25,303.5 C159.25,313.5 166.85,321.65 177.4,321.65 C187.95,321.65 195.55,313.5 195.55,303.5 C195.55,293.45 187.95,285.35 177.4,285.35 C166.85,285.35 159.25,293.45 159.25,303.5 L159.25,303.5 Z M193.35,364.5 C193.35,357.8 198.3,352.05 205.5,352.05 C212.55,352.05 217.45,357.8 217.45,364.5 C217.45,371.15 212.55,376.8 205.45,376.8 C198.25,376.8 193.35,371.15 193.35,364.5 L193.35,364.5 Z M187.25,364.5 C187.25,374.5 194.85,382.65 205.4,382.65 C215.95,382.65 223.55,374.5 223.55,364.5 C223.55,354.45 215.95,346.35 205.4,346.35 C194.85,346.35 187.25,354.45 187.25,364.5 L187.25,364.5 Z M221.35,425.5 C221.35,418.8 226.3,413.05 233.5,413.05 C240.55,413.05 245.45,418.8 245.45,425.5 C245.45,432.15 240.55,437.8 233.45,437.8 C226.25,437.8 221.35,432.15 221.35,425.5 L221.35,425.5 Z M215.25,425.5 C215.25,435.5 222.85,443.65 233.4,443.65 C243.95,443.65 251.55,435.5 251.55,425.5 C251.55,415.45 243.95,407.35 233.4,407.35 C222.85,407.35 215.25,415.45 215.25,425.5 L215.25,425.5 Z M269.4,504 L277.3,504 L260.65,483.85 L275.3,469 L267.35,469 L251.65,484.75 L251.65,469 L245.55,469 L245.55,504 L251.65,504 L251.65,492.7 L256.3,488 L269.4,504 Z M282.15,504 L288.25,504 L288.25,469 L282.15,469 L282.15,504 Z M318.3,504 L324.75,504 L324.75,469 L318.75,469 L318.75,494.2 L303.65,469 L296.85,469 L296.85,504 L302.85,504 L302.85,478.2 L318.3,504 Z M367.05,504 L367.05,485.65 L355.75,485.65 L355.75,491.5 L360.7,491.5 C359.65,495.9 354.8,498.85 349.55,498.85 C342.4,498.85 337.1,493.45 337.35,486.5 C337.5,479.55 342.4,474.05 349.55,474.05 C354.5,474.05 358.85,477.1 359.9,481.05 L366.7,481.05 C365.1,473.5 358.6,468.35 349.5,468.35 C338.95,468.35 331.35,476.45 331.35,486.5 C331.35,496.5 338.95,504.65 349.5,504.65 C355.55,504.65 359.5,502.95 362.55,499.1 L363.35,504 L367.05,504 Z" id="SKETCH-B-O-O-O-KING" fill="#FFFFFF"></path>
        </g>
    </g>
</svg>